<?xml version="1.0" encoding="UTF-8"?>
<svg width="44px" height="20px" viewBox="0 0 44 20" version="1.1" xmlns="http://www.w3.org/2000/svg" xmlns:xlink="http://www.w3.org/1999/xlink">
    <!-- Generator: Sketch 50 (54983) - http://www.bohemiancoding.com/sketch -->
    <title>Logo</title>
    <desc>Created with Sketch.</desc>
    <defs></defs>
    <g id="Main" stroke="none" stroke-width="1" fill="none" fill-rule="evenodd">
        <g id="M-Overview" transform="translate(-165.000000, -64.000000)" fill="#2A8CF8">
            <g id="nav" transform="translate(20.000000, 64.000000)">
                <g id="Logo" transform="translate(145.000000, 0.000000)">
                    <path d="M23.1000001,19.9759459 C23.0995173,19.9897602 24.3432718,20.6789388 31.9023634,13.5871019 C39.4619378,6.49373014 44,0 44,0 C44,0 29.0242499,1.30877416 25.5981312,5.49705615 C23.5620627,7.98771785 23.1159333,19.545657 23.1000001,19.9759459 Z" id="Fill-13"></path>
                    <path d="M20.8932409,19.8150293 C20.8850335,19.6176155 20.8695842,19.2672827 20.8435135,18.7977855 C20.8367544,18.6781098 20.8314438,18.5763343 20.8251675,18.468933 C20.8174428,18.3415857 20.8106838,18.2311158 20.8039247,18.116043 C20.7962,17.99023 20.7884754,17.8746458 20.7807508,17.7559929 C20.7793024,17.7345126 20.777854,17.7130324 20.7764056,17.6910407 C20.768681,17.5744335 20.7609563,17.4552692 20.7522661,17.3330363 C20.7508177,17.3120675 20.7493694,17.2905872 20.747921,17.2696184 C20.738748,17.1427826 20.729575,17.013901 20.7199191,16.8814394 C20.7083322,16.728009 20.6986764,16.5991274 20.6885378,16.4687115 C20.6861238,16.441094 20.6841927,16.413988 20.6817787,16.3858591 C20.6716401,16.2554432 20.6605359,16.1219587 20.6494317,15.98694 C20.6470178,15.9542081 20.644121,15.9209649 20.6412243,15.8877216 C20.6296373,15.75168 20.6180504,15.614104 20.6054978,15.4744823 C20.6030839,15.4463534 20.6001871,15.417713 20.5977732,15.3890727 C20.5861862,15.2586568 20.5741164,15.1267066 20.5615639,14.9937336 C20.5591499,14.9696962 20.5572188,14.9461702 20.5548048,14.9216213 C20.5412867,14.7784196 20.526803,14.6326606 20.5123192,14.4869017 C20.5084569,14.4500784 20.5045946,14.4127437 20.5007323,14.3759204 C20.4862486,14.2301615 20.4707993,14.0838911 20.45535,13.9371093 C20.4514876,13.9043775 20.4481081,13.8716457 20.4442458,13.8389139 C20.4278309,13.6844606 20.4104505,13.5300072 20.3925872,13.3740196 C20.3703788,13.1822316 20.3529984,13.0349384 20.3346523,12.8871337 C20.3312728,12.8564476 20.3274105,12.8257615 20.3235482,12.7950755 C20.3047193,12.6442022 20.2854077,12.4933289 20.2656133,12.3424557 C20.2607854,12.3061438 20.2564403,12.2698319 20.2516124,12.2335201 C20.2313352,12.0821354 20.2105752,11.9307507 20.1893324,11.779366 C20.1849873,11.7507256 20.181125,11.7220853 20.1767799,11.6934449 C20.1560199,11.5466632 20.1342943,11.4003928 20.1125687,11.2551453 C20.0811873,11.0505714 20.0570478,10.8986753 20.0324255,10.747802 C20.0271148,10.7140473 20.0213213,10.6808041 20.0160106,10.6475608 C19.9913883,10.5002676 19.9662832,10.3534858 19.9406953,10.2082383 C19.9353846,10.1775522 19.9295911,10.1468661 19.9242804,10.1156686 C19.8972442,9.96632966 19.8697251,9.81801358 19.8417233,9.67174323 C19.805514,9.48558097 19.7775121,9.34851644 19.7490275,9.21298622 C19.7441996,9.18946022 19.7393717,9.16542279 19.7345438,9.14138535 C19.7050936,9.00227509 19.6746778,8.86572201 19.6437792,8.73019179 C19.6370201,8.70155144 19.630261,8.67239966 19.623502,8.64324787 C19.5926034,8.50925196 19.5607392,8.37781322 19.5279094,8.24842022 C19.522116,8.22540565 19.5163225,8.20290252 19.510529,8.17988796 C19.4772164,8.05049496 19.4434211,7.9231477 19.4086602,7.79938048 C19.3671402,7.65157582 19.3304481,7.52832004 19.2927905,7.40813287 C19.2860314,7.38562974 19.2792723,7.36312661 19.2720305,7.34113491 C19.2358212,7.22606208 19.1986463,7.11405787 19.1605059,7.00563369 C19.1527812,6.983642 19.1450566,6.96216173 19.1373319,6.94068147 C19.0982259,6.83123443 19.0586371,6.72434456 19.0175999,6.62256904 C18.9640102,6.49164173 18.9234558,6.3970263 18.8819358,6.30701377 C18.8230353,6.17915508 18.7791014,6.0927226 18.7346847,6.00987016 C18.6646801,5.88150003 18.6192978,5.80529625 18.5729499,5.73420681 C18.5005313,5.62629407 18.4512867,5.55673894 18.4005937,5.49485533 C14.9747124,1.30876162 0,0 0,0 C0,0 4.53823054,6.49164173 12.0977639,13.5816622 C19.6553661,20.6706597 20.9,19.9817571 20.9,19.9817571 C20.8985516,19.9459566 20.8966205,19.8932788 20.8932409,19.8150293 Z" id="Fill-14"></path>
                </g>
            </g>
        </g>
    </g>
</svg>