<?xml version="1.0" encoding="UTF-8"?>
<svg width="305px" height="30px" viewBox="0 0 305 30" version="1.1" xmlns="http://www.w3.org/2000/svg" xmlns:xlink="http://www.w3.org/1999/xlink">
    <!-- Generator: Sketch 50 (54983) - http://www.bohemiancoding.com/sketch -->
    <title>afest_logo</title>
    <desc>Created with Sketch.</desc>
    <defs></defs>
    <g id="Main" stroke="none" stroke-width="1" fill="none" fill-rule="evenodd">
        <g id="Overview" transform="translate(-140.000000, -264.000000)" fill="#FFFFFF" fill-rule="nonzero">
            <g id="header">
                <g id="Group-6">
                    <g id="afest_logo" transform="translate(140.000000, 264.000000)">
                        <g id="Group">
                            <path d="M59.5031319,13.5123825 L59.5031319,23.2747221 L55.3332113,23.2747221 L55.3332113,13.7977118 C55.3332113,11.8819291 54.3724943,10.781373 52.675909,10.781373 C50.7953565,10.781373 49.7324356,12.0449744 49.7324356,14.3683705 L49.7324356,23.2747221 L45.562515,23.2747221 L45.562515,13.7977118 C45.562515,11.8819291 44.601798,10.781373 42.9256534,10.781373 C41.1064233,10.781373 39.9617393,12.0449744 39.9617393,14.3683705 L39.9617393,23.2747221 L35.7713778,23.2747221 L35.7713778,6.92942691 L39.9412985,6.92942691 L39.9412985,9.08977765 C40.8611339,7.66313093 42.3533114,6.94980758 44.3565085,6.94980758 C46.2983833,6.94980758 47.7496792,7.70389227 48.6899554,9.23244232 C49.7528764,7.70389227 51.3472578,6.94980758 53.4526589,6.94980758 C57.1320006,6.94980758 59.5031319,9.53815233 59.5031319,13.5123825 Z" id="Shape"></path>
                            <path d="M63.1415921,2.97557744 C63.1415921,1.61007272 64.2862762,0.427994015 65.6558089,0.427994015 C67.0662233,0.427994015 68.2109074,1.61007272 68.2109074,2.97557744 C68.2109074,4.34108215 67.0662233,5.48239952 65.6558089,5.48239952 C64.2862762,5.48239952 63.1415921,4.34108215 63.1415921,2.97557744 Z M63.5504078,23.2747221 L63.5504078,6.92942691 L67.7203285,6.92942691 L67.7203285,23.2747221 L63.5504078,23.2747221 Z" id="Shape"></path>
                            <path d="M85.3198464,8.70254497 C86.4645305,9.88462368 87.0368725,11.4743157 87.0368725,13.5327631 L87.0368725,23.2543415 L82.9895966,23.2543415 L82.9895966,14.0626605 C82.9895966,11.9226904 81.6813862,10.781373 79.780393,10.781373 C77.6341103,10.781373 76.223696,12.0857358 76.223696,14.7352225 L76.223696,23.2747221 L72.1559793,23.2747221 L72.1559793,6.92942691 L76.2032552,6.92942691 L76.2032552,9.19168099 C77.2457354,7.70389227 78.819676,6.97018824 80.9863994,6.97018824 C82.7443072,6.94980758 84.1956031,7.52046626 85.3198464,8.70254497 Z" id="Shape"></path>
                            <polygon id="Shape" points="122.317671 6.92942691 126.855526 6.92942691 120.784612 23.2747221 116.083231 23.2747221 110.012317 6.92942691 114.550172 6.92942691 118.413481 18.5464073"></polygon>
                            <path d="M140.898347,6.92942691 L145.068268,6.92942691 L145.068268,23.2747221 L140.898347,23.2747221 L140.898347,21.4404621 C139.733222,23.0097735 137.954874,23.7638582 135.726828,23.7638582 C133.580545,23.7638582 131.781756,22.9690121 130.248697,21.3385587 C128.756519,19.7081054 127.97977,17.7108 127.97977,15.3466425 C127.97977,12.9824851 128.756519,11.0259411 130.248697,9.39548766 C131.781756,7.76503427 133.580545,6.94980758 135.706387,6.94980758 C137.934433,6.94980758 139.712781,7.70389227 140.877906,9.27320366 L140.877906,6.92942691 L140.898347,6.92942691 Z M136.503578,19.85077 C137.770907,19.85077 138.833828,19.4431567 139.6719,18.6075493 C140.530413,17.7515613 140.939229,16.6713859 140.939229,15.3670232 C140.939229,14.0626605 140.530413,12.9824851 139.6719,12.1468778 C138.833828,11.2908897 137.791347,10.8832764 136.503578,10.8832764 C135.236249,10.8832764 134.173328,11.2908897 133.335256,12.1468778 C132.497184,12.9824851 132.088368,14.0626605 132.088368,15.3670232 C132.088368,16.6713859 132.497184,17.7515613 133.335256,18.6075493 C134.173328,19.422776 135.236249,19.85077 136.503578,19.85077 Z" id="Shape"></path>
                            <path d="M169.965147,17.0178573 C170.517048,19.0966853 172.009225,20.0138154 174.46212,20.0138154 C176.036061,20.0138154 177.242067,19.483918 178.039258,18.4241233 L181.350665,20.339906 C179.776725,22.6021601 177.466916,23.7434775 174.400798,23.7434775 C171.743495,23.7434775 169.638094,22.9486315 168.043713,21.3589394 C166.449331,19.7692474 165.652141,17.771942 165.652141,15.3466425 C165.652141,12.9621045 166.449331,10.964799 168.023272,9.35472633 C169.597213,7.72427294 171.620851,6.92942691 174.094186,6.92942691 C176.424436,6.92942691 178.36631,7.72427294 179.878929,9.35472633 C181.411988,10.9851797 182.168297,12.9417238 182.168297,15.3262619 C182.168297,15.8765399 182.147856,16.4064372 182.066093,17.0586186 L169.965147,17.0178573 Z M178.039258,13.8996152 C177.56912,11.6985031 175.974738,10.6794697 174.073745,10.6794697 C171.86614,10.6794697 170.373962,11.8207871 169.883384,13.8996152 L178.039258,13.8996152 Z" id="Shape"></path>
                            <path d="M195.434368,6.99056891 L199.829137,6.99056891 L194.044394,22.9078701 C192.38869,27.4935203 189.670066,29.4908257 185.62279,29.2666384 L185.62279,25.4554536 C187.830395,25.4962149 189.015961,24.5587042 189.79271,22.3983534 L183.231218,6.99056891 L187.728191,6.99056891 L191.877671,17.6904193 L195.434368,6.99056891 Z" id="Shape"></path>
                            <path d="M153.408109,0.101903337 C149.238188,0.631800689 149.360833,3.79080413 149.360833,3.79080413 L149.360833,23.4173868 L153.408109,23.4173868 L153.408109,0.101903337 Z" id="Shape"></path>
                            <path d="M107.252811,1.0597947 L107.252811,0.998652702 C103.082891,1.54893072 103.205535,4.70793416 103.205535,4.70793416 L103.205535,9.29358432 C101.897325,7.72427294 100.302943,6.97018824 98.0748977,6.97018824 C95.928615,6.97018824 94.1093849,7.80579561 92.5763259,9.41586833 C91.0841484,11.0463217 90.3278393,13.0028658 90.3278393,15.3670232 C90.3278393,17.7311806 91.1045892,19.728486 92.5967667,21.3589394 C94.1298257,22.9893928 95.9490558,23.7842388 98.0748977,23.7842388 C100.302943,23.7842388 101.897325,23.0301541 103.205535,21.4608427 L103.205535,23.4173868 L107.252811,23.4173868 L107.252811,1.03941404 L107.252811,1.0597947 Z M102.04041,18.6075493 C101.202338,19.4431567 100.159858,19.85077 98.8720884,19.85077 C97.6047596,19.85077 96.5418386,19.4431567 95.6833255,18.6075493 C94.8452533,17.7515613 94.4364375,16.6713859 94.4364375,15.3670232 C94.4364375,14.0626605 94.8452533,12.9824851 95.6833255,12.1468778 C96.5418386,11.2908897 97.6047596,10.8832764 98.8720884,10.8832764 C100.139417,10.8832764 101.202338,11.2908897 102.04041,12.1468778 C102.878483,12.9824851 103.287298,14.0626605 103.287298,15.3670232 C103.287298,16.6713859 102.878483,17.7515613 102.04041,18.6075493 Z" id="Shape"></path>
                            <path d="M161.891036,0.101903337 C157.721115,0.631800689 157.84376,3.79080413 157.84376,3.79080413 L157.84376,23.4173868 L161.891036,23.4173868 L161.891036,0.101903337 Z" id="Shape"></path>
                            <g transform="translate(0.000000, 1.222840)" id="Shape">
                                <path d="M18.6419981,3.77042346 C17.1702614,5.46201886 16.8432088,13.3085758 16.8432088,13.5939051 C16.8432088,13.5939051 16.8432088,13.5939051 16.8432088,13.5939051 C16.8432088,13.5939051 16.8432088,13.5939051 16.8432088,13.5939051 C16.8432088,13.5939051 17.7426034,14.0626605 23.2002936,9.25282299 C28.6579839,4.44298549 31.9285098,0.0203806674 31.9285098,0.0203806674 C31.9285098,0.0203806674 21.1153333,0.917130032 18.6419981,3.77042346 Z"></path>
                                <path d="M15.187505,13.5939051 C15.187505,13.5735245 15.187505,13.5531438 15.187505,13.4920018 C15.187505,13.4920018 15.187505,13.4920018 15.187505,13.4920018 C15.187505,13.3697178 15.1670642,13.1251498 15.1466234,12.7990591 C15.1466234,12.7990591 15.1466234,12.7990591 15.1466234,12.7786784 C15.1466234,12.7175364 15.1466234,12.6360138 15.1261826,12.5748718 C15.1261826,12.5748718 15.1261826,12.5748718 15.1261826,12.5544911 C15.1261826,12.4729684 15.1261826,12.4118264 15.1057418,12.3303038 C15.1057418,12.3303038 15.1057418,12.3303038 15.1057418,12.3303038 C15.1057418,12.2487811 15.0853011,12.1672584 15.0853011,12.0857358 C15.0853011,12.0653551 15.0853011,12.0653551 15.0853011,12.0449744 C15.0853011,11.9634518 15.0648603,11.8819291 15.0648603,11.8004064 C15.0648603,11.7800257 15.0648603,11.7800257 15.0648603,11.7596451 C15.0648603,11.6781224 15.0444195,11.5762191 15.0444195,11.4946964 C15.0444195,11.4946964 15.0444195,11.4743157 15.0444195,11.4743157 C15.0444195,11.3927931 15.0239787,11.3112704 15.0239787,11.2093671 C15.0239787,11.1889864 15.0239787,11.1686057 15.0239787,11.1482251 C15.0239787,11.0667024 15.0035379,10.964799 15.0035379,10.8832764 C15.0035379,10.8628957 15.0035379,10.842515 15.0035379,10.8221344 C15.0035379,10.720231 14.9830971,10.6387084 14.9830971,10.536805 C14.9830971,10.5164244 14.9830971,10.4960437 14.9830971,10.475663 C14.9830971,10.3941404 14.9626563,10.292237 14.9626563,10.2107144 C14.9626563,10.1903337 14.9626563,10.169953 14.9626563,10.169953 C14.9626563,10.0680497 14.9422155,9.96614635 14.9217748,9.88462368 C14.9217748,9.86424301 14.9217748,9.84386234 14.9217748,9.80310101 C14.901334,9.70119767 14.901334,9.59929433 14.8808932,9.497391 C14.8808932,9.47701033 14.8808932,9.45662966 14.8808932,9.436249 C14.8604524,9.33434566 14.8604524,9.23244232 14.8400116,9.13053899 C14.8400116,9.11015832 14.8400116,9.11015832 14.8400116,9.08977765 C14.8195708,8.98787431 14.8195708,8.88597098 14.79913,8.78406764 C14.79913,8.76368697 14.79913,8.74330631 14.79913,8.72292564 C14.7786892,8.6210223 14.7786892,8.51911896 14.7582485,8.41721563 C14.7582485,8.39683496 14.7582485,8.37645429 14.7378077,8.33569296 C14.7173669,8.23378962 14.7173669,8.13188628 14.6969261,8.02998295 C14.6969261,8.00960228 14.6969261,7.98922161 14.6969261,7.96884094 C14.6764853,7.86693761 14.6764853,7.76503427 14.6560445,7.66313093 C14.6560445,7.64275027 14.6560445,7.64275027 14.6560445,7.6223696 C14.6356037,7.52046626 14.6151629,7.41856293 14.5947222,7.31665959 C14.5947222,7.29627892 14.5947222,7.27589825 14.5742814,7.25551759 C14.5538406,7.15361425 14.5333998,7.05171091 14.512959,6.94980758 C14.512959,6.92942691 14.512959,6.90904624 14.4925182,6.88866557 C14.4720774,6.78676224 14.4516366,6.6848589 14.4311959,6.58295556 C14.4311959,6.5625749 14.4311959,6.5625749 14.4311959,6.54219423 C14.4107551,6.44029089 14.3903143,6.35876822 14.3698735,6.25686488 C14.3698735,6.23648422 14.3698735,6.21610355 14.3494327,6.21610355 C14.3289919,6.11420021 14.3085511,6.03267754 14.2881104,5.93077421 C14.2881104,5.91039354 14.2881104,5.89001287 14.2676696,5.8696322 C14.2472288,5.78810954 14.226788,5.6862062 14.2063472,5.60468353 C14.2063472,5.58430286 14.2063472,5.56392219 14.1859064,5.56392219 C14.1654656,5.48239952 14.1450248,5.38049619 14.1041433,5.29897352 C14.1041433,5.29897352 14.1041433,5.29897352 14.1041433,5.27859285 C14.0837025,5.19707018 14.0428209,5.11554751 14.0223801,5.03402484 C14.0223801,5.01364417 14.0223801,5.01364417 14.0019393,4.99326351 C13.9814985,4.91174084 13.940617,4.83021817 13.9201762,4.76907617 C13.9201762,4.7486955 13.8997354,4.7486955 13.8997354,4.72831483 C13.8792946,4.64679216 13.838413,4.58565016 13.8179722,4.50412749 C13.8179722,4.50412749 13.8179722,4.48374682 13.8179722,4.48374682 C13.7975315,4.42260482 13.7566499,4.36146282 13.7362091,4.30032082 C13.7362091,4.30032082 13.7362091,4.27994015 13.7157683,4.27994015 C13.6748867,4.21879815 13.6544459,4.15765615 13.6135644,4.09651414 C13.6135644,4.07613348 13.5931236,4.07613348 13.5931236,4.05575281 C13.552242,3.99461081 13.5318012,3.95384947 13.4909196,3.89270747 C13.4909196,3.89270747 13.4704789,3.8723268 13.4704789,3.8723268 C13.4295973,3.83156547 13.4091565,3.77042346 13.3682749,3.72966213 C10.8949397,0.896749365 0.102203937,-5.68434189e-14 0.102203937,-5.68434189e-14 C0.102203937,-5.68434189e-14 3.37272991,4.40222415 8.83042013,9.23244232 C14.2881104,14.0626605 15.187505,13.5939051 15.187505,13.5939051 C15.187505,13.5939051 15.187505,13.5939051 15.187505,13.5939051 C15.187505,13.5939051 15.187505,13.5939051 15.187505,13.5939051 Z"></path>
                            </g>
                        </g>
                        <g id="Group" transform="translate(212.000000, 0.000000)">
                            <path d="M14.9754815,7.3212695 L17.9010195,7.3212695 L17.9010195,24.2117476 L14.9754815,24.2117476 L14.9754815,21.3038631 C13.5433999,23.5311789 11.4157359,24.6448368 8.63340598,24.6448368 C6.28070056,24.6448368 4.27578638,23.7992817 2.63912173,22.0875483 C1.00245709,20.3551915 0.163666464,18.2309922 0.163666464,15.7768202 C0.163666464,13.3020249 1.00245709,11.2190721 2.63912173,9.48671541 C4.27578638,7.75435868 6.30115887,6.88818032 8.63340598,6.88818032 C11.4157359,6.88818032 13.5229416,8.00183822 14.9754815,10.229154 L14.9754815,7.3212695 Z M13.2569836,20.107712 C14.4026488,18.9321842 14.9754815,17.5091769 14.9754815,15.7768202 C14.9754815,14.0444635 14.4026488,12.6420794 13.2569836,11.487175 C12.1113183,10.3116472 10.7201534,9.73419494 9.00165553,9.73419494 C7.32407427,9.73419494 5.91245102,10.3116472 4.78724408,11.487175 C3.64157883,12.6420794 3.0687462,14.0444635 3.0687462,15.7768202 C3.0687462,17.5091769 3.64157883,18.9115609 4.78724408,20.107712 C5.93290932,21.2626165 7.32407427,21.8400687 9.00165553,21.8400687 C10.7201534,21.8194454 12.1317767,21.2419932 13.2569836,20.107712 Z" id="Shape"></path>
                            <polygon id="Shape" points="23.2815545 17.6329167 23.2815545 14.7869021 33.142459 14.7869021 33.142459 17.6329167"></polygon>
                            <path d="M46.5426507,2.96975439 C43.5966544,2.74289815 42.1236562,4.0215424 42.1236562,6.82631044 L42.1236562,7.3418928 L46.5426507,7.3418928 L46.5426507,10.1879074 L42.1236562,10.1879074 L42.1236562,24.2323709 L39.1981182,24.2323709 L39.1981182,10.1879074 L36.5180798,10.1879074 L36.5180798,7.3418928 L39.1981182,7.3418928 L39.1981182,6.82631044 C39.1981182,2.26856238 41.8167816,-0.164986355 46.5426507,0.144363061 L46.5426507,2.96975439 Z" id="Shape"></path>
                            <path d="M50.5729374,17.1173343 C51.14577,20.1283353 53.4575588,21.8813153 56.6285966,21.8813153 C58.8380939,21.8813153 60.4543002,21.0770068 61.4567573,19.40652 L63.9322125,20.8295273 C62.2955479,23.3661925 59.8405509,24.6448368 56.5672217,24.6448368 C53.9280999,24.6448368 51.739061,23.7992817 50.0614797,22.1494182 C48.4248151,20.458308 47.5860244,18.3341087 47.5860244,15.7561969 C47.5860244,13.2195317 48.3838985,11.0953324 50.0410214,9.40422223 C51.677686,7.71311209 53.7848918,6.86755703 56.3830969,6.86755703 C58.8380939,6.86755703 60.843008,7.75435868 62.3773811,9.5073387 C63.9526709,11.2396954 64.7300866,13.3226482 64.7300866,15.7974435 C64.7300866,16.2305327 64.6891699,16.6842451 64.627795,17.1173343 L50.5729374,17.1173343 Z M50.5729374,14.5600458 L61.7636319,14.5600458 C61.2521742,11.3428119 59.0426769,9.65170177 56.3626386,9.65170177 C53.2529758,9.65170177 51.0639368,11.5902914 50.5729374,14.5600458 Z" id="Shape"></path>
                            <path d="M73.8954086,14.4156828 C76.514072,14.993135 79.9919843,15.9624298 79.9510677,19.5921297 C79.9510677,21.1182534 79.3577768,22.3556511 78.1711949,23.2836993 C77.0050714,24.1911243 75.5320732,24.6654601 73.6908255,24.6654601 C70.4379545,24.6654601 68.0034158,23.118713 67.0214171,20.7057875 L69.5377889,19.2621569 C70.069705,20.8913972 71.6449947,21.9019386 73.6908255,21.9019386 C75.5934481,21.9019386 77.0050714,21.2007466 77.0050714,19.6127529 C77.0050714,18.2928621 75.5320732,17.5504235 73.6908255,17.1173343 C71.0517037,16.4161423 67.6351663,15.5293407 67.6351663,11.9408874 C67.6351663,10.4972568 68.2079989,9.28048247 69.3127476,8.33181093 C70.4584128,7.38313938 71.8495778,6.90880361 73.5680756,6.90880361 C76.2890306,6.90880361 78.5189862,8.22869445 79.6032765,10.4147637 L77.1482795,11.7965244 C76.5549886,10.3528938 75.3479484,9.63107847 73.5680756,9.63107847 C71.931411,9.63107847 70.5811627,10.435387 70.5811627,11.8996409 C70.5811627,13.1989084 72.0541608,13.9207237 73.8954086,14.4156828 Z" id="Shape"></path>
                            <path d="M92.5124688,10.1672841 L88.0525577,10.1672841 L88.0525577,19.3240268 C88.0525577,21.9225619 89.5255559,21.716329 92.5124688,21.5925892 L92.5124688,24.2323709 C87.4183501,24.9129396 85.147478,23.5311789 85.147478,19.3240268 L85.147478,10.1672841 L81.8332321,10.1672841 L81.8332321,7.3212695 L85.147478,7.3212695 L85.147478,3.46471345 L88.073016,2.5779118 L88.073016,7.30064621 L92.5329272,7.30064621 L92.5329272,10.1672841 L92.5124688,10.1672841 Z" id="Shape"></path>
                        </g>
                    </g>
                </g>
            </g>
        </g>
    </g>
</svg>